<?xml version="1.0" standalone="no"?>
<!DOCTYPE svg PUBLIC "-//W3C//DTD SVG 20010904//EN"
 "http://www.w3.org/TR/2001/REC-SVG-20010904/DTD/svg10.dtd">
<svg version="1.0" xmlns="http://www.w3.org/2000/svg"
 width="512.000000pt" height="512.000000pt" viewBox="0 0 512.000000 512.000000"
 preserveAspectRatio="xMidYMid meet">
<metadata>
Created by potrace 1.15, written by Peter Selinger 2001-2017
</metadata>
<g transform="translate(0.000000,512.000000) scale(0.100000,-0.100000)"
fill="#000000" stroke="none">
<path d="M2442 4157 c-6 -6 -13 -23 -17 -37 -5 -20 108 -952 119 -985 8 -21
16 35 70 465 62 494 65 529 38 553 -23 21 -193 25 -210 4z"/>
<path d="M2979 3863 c-17 -29 -287 -678 -283 -682 5 -5 4 -6 251 319 149 194
203 272 203 292 0 24 -9 32 -60 58 -68 34 -95 37 -111 13z"/>
<path d="M2010 3797 c-86 -51 -86 -50 101 -298 227 -300 290 -381 295 -376 9
8 -278 673 -297 690 -29 23 -36 22 -99 -16z"/>
<path d="M3384 3640 c-67 -14 -135 -54 -195 -117 -84 -87 -659 -760 -659 -771
0 -5 34 -80 75 -166 l76 -157 32 20 c53 32 117 44 167 31 63 -17 128 -83 145
-146 31 -119 -31 -214 -169 -258 -14 -5 -17 -13 -12 -34 3 -15 8 -81 12 -148
l7 -121 801 -213 c441 -117 804 -215 807 -217 4 -1 -4 -37 -17 -80 -14 -42
-27 -95 -30 -117 -10 -70 5 -79 217 -133 176 -45 187 -47 211 -31 22 14 37 65
146 475 105 395 122 468 122 534 0 114 -189 1107 -223 1175 -27 53 -104 132
-155 158 -48 25 -1232 326 -1277 325 -22 -1 -59 -5 -81 -9z m621 -431 c242
-66 469 -129 505 -141 84 -27 128 -60 152 -116 18 -40 152 -718 145 -733 -2
-7 -1907 504 -1907 511 0 3 105 127 233 275 220 254 285 319 332 327 44 8 118
-9 540 -123z m689 -1221 c24 -7 61 -32 87 -58 79 -76 88 -166 26 -257 -84
-124 -250 -124 -334 1 -28 41 -33 57 -33 109 0 103 53 180 140 205 48 14 66
14 114 0z"/>
<path d="M678 3196 c-60 -22 -125 -64 -157 -103 -37 -44 -488 -985 -507 -1057
-11 -40 -14 -160 -14 -553 0 -443 2 -503 16 -517 13 -14 47 -16 217 -16 111 0
207 4 213 8 26 17 34 56 34 161 l0 111 905 0 905 0 0 -123 c0 -107 2 -126 18
-140 16 -15 47 -17 220 -17 190 0 203 1 222 20 21 21 21 29 18 528 -3 462 -5
511 -21 557 -10 28 -120 264 -245 525 -248 521 -258 536 -373 597 l-54 28
-680 2 c-542 2 -687 0 -717 -11z m1308 -300 c49 -29 84 -92 238 -418 l144
-308 -988 0 -989 0 38 83 c110 236 284 584 304 606 12 13 40 32 62 42 38 18
72 19 600 16 526 -2 562 -3 591 -21z m-1432 -1006 c115 -78 128 -232 27 -323
-103 -93 -254 -67 -319 53 -20 38 -23 56 -20 112 3 57 8 73 34 105 51 63 98
84 175 81 50 -3 75 -9 103 -28z m1844 14 c74 -31 131 -111 132 -185 0 -19 -12
-60 -27 -90 -101 -199 -388 -131 -387 91 1 81 48 155 119 186 41 18 118 17
163 -2z"/>
</g>
</svg>
