<svg id="ammo" xmlns="http://www.w3.org/2000/svg" viewBox="0 0 199.1 201"><title>ammo</title><path id="ammo-2" data-name="ammo" d="M98.5,15.88,102,17.13c5.78,2.12,9.59,6.29,12,11.78a46.48,46.48,0,0,1,3.53,14c.55,4.9,1,9.81,1.46,14.79h-42c.19-2.67.32-5.34.6-8,.46-4.36.88-8.73,1.56-13A28.34,28.34,0,0,1,83.32,26c2.83-4.48,7-7.24,11.83-9.12.78-.3,1.55-.65,2.32-1Zm51.48,0-2.52,1c-4.28,1.69-8.1,4-10.87,7.82A31.79,31.79,0,0,0,131,39.85c-.51,4.12-.81,8.27-1.18,12.41-.16,1.81-.28,3.62-.42,5.47h41.92c0-.22,0-.39,0-.55-.46-4.82-.85-9.65-1.39-14.46A46,46,0,0,0,166.4,28.8c-2.45-5.39-6.2-9.51-11.88-11.61-1.22-.46-2.45-.88-3.68-1.31Zm-104.67,0-2.62,1c-4.48,1.77-8.43,4.27-11.22,8.31a30,30,0,0,0-4.95,13.06c-.61,4.34-.95,8.71-1.38,13.08-.2,2.11-.33,4.24-.49,6.46,14-.09,27.91.15,41.84-.25,0-.65,0-1.13,0-1.61-.39-4.2-.76-8.4-1.22-12.59a49.43,49.43,0,0,0-3.2-13.49c-2.32-5.66-6-10-11.75-12.44-1.41-.59-2.89-1-4.33-1.54ZM66.52,183.5V173.11H24.66v1.16c0,3.08,0,6.15-.05,9.23Zm52.51,0V173.1H77.12v10.4Zm52.33,0V173.1h-41.9v10.4ZM66.51,64.72H24.73v101.4H66.51Zm63,101.38h41.77V64.67H129.51Zm-52.37,0h41.77V64.69H77.14Z"/></svg>