<svg xmlns="http://www.w3.org/2000/svg" viewBox="0 0 199.1 201"><title>crash</title><g id="crash"><path id="crash-2" data-name="crash" d="M94.89,38.7a4.07,4.07,0,0,0-.65,1.43c-.2.77,4.18,36.86,4.6,38.14.31.81.62-1.35,2.71-18C104,41.14,104.07,39.78,103,38.85S95.55,37.88,94.89,38.7Zm20.8,11.38c-.66,1.12-11.12,26.26-11,26.41s.15.23,9.72-12.35c5.77-7.51,7.86-10.54,7.86-11.31,0-.93-.35-1.24-2.32-2.25C117.35,49.27,116.31,49.15,115.69,50.08ZM78.17,52.64c-3.33,2-3.33,1.93,3.91,11.54C90.87,75.79,93.31,78.93,93.5,78.74,93.85,78.43,82.73,52.68,82,52,80.88,51.13,80.61,51.17,78.17,52.64Zm53.2,6.08a14.89,14.89,0,0,0-7.55,4.53C120.57,66.62,98.3,92.68,98.3,93.1c0,.2,1.32,3.1,2.91,6.43l2.94,6.08,1.24-.77a8.77,8.77,0,0,1,6.46-1.2,8.86,8.86,0,0,1,5.62,5.65c1.2,4.61-1.2,8.29-6.54,10-.55.19-.66.5-.47,1.32.12.58.31,3.13.47,5.73l.27,4.68,31,8.25c17.08,4.53,31.14,8.33,31.25,8.4a9,9,0,0,1-.65,3.1,32.39,32.39,0,0,0-1.17,4.53c-.38,2.71.2,3.06,8.41,5.15,6.81,1.75,7.24,1.82,8.17,1.2s1.43-2.51,5.65-18.39c4.07-15.3,4.73-18.12,4.73-20.68,0-4.41-7.32-42.87-8.64-45.5A17.94,17.94,0,0,0,184,71c-1.86-1-47.71-12.62-49.45-12.58A27.92,27.92,0,0,0,131.37,58.72Zm24,16.69c9.37,2.55,18.16,5,19.55,5.46,3.26,1,5,2.32,5.89,4.49.7,1.55,5.89,27.8,5.62,28.38-.08.27-73.85-19.51-73.85-19.79,0-.11,4.07-4.91,9-10.64,8.52-9.84,11-12.36,12.86-12.67S139.08,71,155.42,75.41Zm26.68,47.28a9.72,9.72,0,0,1,3.37,2.24c3.06,2.95,3.41,6.43,1,10a7.6,7.6,0,0,1-12.94,0,5.83,5.83,0,0,1-1.28-4.22c0-4,2.06-7,5.43-7.94A6.2,6.2,0,0,1,182.1,122.69Zm-155.35-47a15.48,15.48,0,0,0-6.08,4c-1.43,1.71-18.89,38.24-19.63,41C.62,122.23.5,126.89.5,142.15c0,17.2.08,19.53.62,20.07s1.82.62,8.4.62a62.84,62.84,0,0,0,8.25-.31c1-.66,1.32-2.17,1.32-6.25V152H89.18v4.78c0,4.15.07,4.89.69,5.43s1.82.66,8.52.66c7.36,0,7.86,0,8.6-.77s.81-1.13.7-20.5c-.12-17.94-.2-19.84-.82-21.63-.38-1.08-4.64-10.24-9.48-20.38-9.61-20.22-10-20.81-14.45-23.17L80.85,75.3l-26.33-.08C33.53,75.14,27.92,75.22,26.75,75.65ZM77.24,87.46c1.89,1.12,3.25,3.56,9.21,16.18L92,115.57H15.47l1.47-3.21c4.26-9.14,11-22.62,11.78-23.47a8.9,8.9,0,0,1,2.4-1.63c1.47-.69,2.78-.73,23.23-.61S76.11,86.76,77.24,87.46Zm-55.46,39a7.84,7.84,0,0,1,1,12.51,7.81,7.81,0,0,1-12.35-2.05,6.62,6.62,0,0,1-.78-4.34c.12-2.21.31-2.83,1.32-4.07a7.29,7.29,0,0,1,6.78-3.13A7,7,0,0,1,21.78,126.48Zm71.41-.54a8.5,8.5,0,0,1,5.11,7.16,10.09,10.09,0,0,1-1,3.49,7.86,7.86,0,0,1-15-3.52,8,8,0,0,1,4.61-7.21A9.56,9.56,0,0,1,93.19,125.94Z"/></g></svg>