<svg xmlns="http://www.w3.org/2000/svg" viewBox="0 0 199.1 201"><title>gas</title><g id="gas"><path id="gas-2" data-name="gas" d="M168.48,75.4v75.75c0,10.07-6.4,19.57-16.18,21.94a21.58,21.58,0,0,1-26.9-20.89V109.12h-8.62v68.93H30.62V40.19A17.28,17.28,0,0,1,47.85,23h51.7a17.28,17.28,0,0,1,17.23,17.24V100.5h5.62s17.23,8.5,20.23,18v38.77c-3,4.74.88,8.62,5.62,8.62s3-8.62,3-8.62V95.13s.11,1.81-3,1.81a21.51,21.51,0,0,1-7.67-41.61L122.4,37.15,131.53,28l32.05,32.05-.08.09C167.38,64,168.48,75.4,168.48,75.4ZM99.55,40.19H47.85V83.27h51.7ZM156.86,75.4A8.62,8.62,0,1,0,148.25,84,8.64,8.64,0,0,0,156.86,75.4Z"/></g></svg>