<svg xmlns="http://www.w3.org/2000/svg" viewBox="0 0 197.74 121.2">
  <title>Ресурс 17</title>
  <g id="Слой_2" data-name="Слой 2">
    <g id="light-on">
      <path
        d="M112.32,14.19C95.89-.92,74.6-.81,63.37.6a86.82,86.82,0,0,0-40.73,17C7.83,29.16,0,44.06,0,60.73c0,33.52,33,57.32,63.57,60.14,1.69.16,3.86.29,6.39.29,10.92,0,28.52-2.46,42.48-16,11-10.63,10.92-24.55,10.88-38,0-2.07,0-4.21,0-6.27,0-1.65.09-3.3.14-4.94C124,40.89,124.44,25.34,112.32,14.19ZM110.8,55.52c-.06,1.69-.11,3.38-.15,5.1,0,2.21,0,4.41,0,6.55,0,11.8.07,22-7,28.87h0c-13.41,13-31.64,12.86-38.86,12.19-21.82-2-52-19.65-52-47.51,0-28.27,30.56-44.82,52.26-47.54a64.39,64.39,0,0,1,8-.5c9.23,0,21.26,2.07,30.8,10.84C111.57,30.75,111.21,42.23,110.8,55.52Zm86.94,53V121.2H130.91V108.51Zm-.06-27.07V94.13H130.85V81.44Zm0-26.23V67.9H130.85V55.21Zm0-25.38V42.52H130.85V29.83Zm0-24.42V17.87H130.85V5.41Z"/>
    </g>
  </g>
</svg>
