<svg xmlns="http://www.w3.org/2000/svg" viewBox="0 0 199.1 201">
  <title>light-off</title>
  <g id="light-off">
    <path id="light-off-2" data-name="light-off"
          d="M131.72,122.34h66.83V135H131.72Zm0,39.76h66.83V149.41H131.72Zm66.83-91.37V83.42H136.27l-11.83,8c0,1.79-.1,3.57-.15,5.35s-.1,3.29-.14,4.94c0,2.06,0,4.2,0,6.27,0,13.47.08,27.39-10.88,38-14,13.55-31.56,16-42.48,16-2.53,0-4.7-.13-6.39-.29a78,78,0,0,1-29.74-9.23L11.49,168.28a7.1,7.1,0,0,1-9.68-1.65,6.61,6.61,0,0,1,1.7-9.39l19-12.9C9.68,133.75.81,119,.81,101.63.81,85,8.64,70.06,23.45,58.52a86.82,86.82,0,0,1,40.73-17C75.41,40.09,96.7,40,113.13,55.09c6.35,5.85,9.24,12.91,10.48,20.47l24.52-16.67H130.87V46.2h35.92L186.6,32.72a7.1,7.1,0,0,1,9.69,1.65,6.62,6.62,0,0,1-1.7,9.39L191,46.2h6.69V58.89H172.35L154.93,70.73Zm-165,66,78.09-53.1c-.37-7.8-2-14.46-7.16-19.24C95,55.66,83,53.59,73.74,53.59a64.39,64.39,0,0,0-8,.5C44.06,56.81,13.5,73.36,13.5,101.63,13.5,116.56,22.18,128.55,33.6,136.77Zm77.9-36.5-64.63,44a63.44,63.44,0,0,0,18.68,4.92c7.22.67,25.45.82,38.86-12.19h0c7.09-6.87,7.06-17.07,7-28.87,0-2.14,0-4.34,0-6.55C111.47,101.1,111.49,100.69,111.5,100.27Zm20.22,8.53h66.83V96.11H131.72Z"/>
  </g>
</svg>
