<svg xmlns="http://www.w3.org/2000/svg" viewBox="0 0 199.1 201"><title>lock</title><g id="lock"><path id="lock-2" data-name="lock" d="M148.33,74.54H146c-1.18-14.26-5.78-27.48-13.27-37.79-8.8-12.14-20.53-18.82-33-18.82s-24.22,6.68-33,18.82C59.17,47.06,54.57,60.28,53.39,74.54H50.76a19.42,19.42,0,0,0-19.39,19.4v69.73a19.42,19.42,0,0,0,19.39,19.4h97.57a19.42,19.42,0,0,0,19.4-19.4V93.94A19.42,19.42,0,0,0,148.33,74.54ZM80.09,46.49c5.6-7.71,12.55-12,19.59-12s14,4.25,19.58,12c5.33,7.34,8.76,16.76,10,27.11H70.14C71.33,63.25,74.76,53.83,80.09,46.49Zm71,117.18a2.8,2.8,0,0,1-2.8,2.8H50.76a2.8,2.8,0,0,1-2.8-2.8V93.94a2.8,2.8,0,0,1,2.8-2.8h97.57a2.8,2.8,0,0,1,2.8,2.8Zm-46-39v23.48a6,6,0,1,1-12,0v-24A11.17,11.17,0,0,1,97.88,104a5.88,5.88,0,0,1,1.27-.14h.4a11.18,11.18,0,0,1,5.59,20.86Z"/></g></svg>