<svg xmlns="http://www.w3.org/2000/svg" viewBox="0 0 199.1 201"><title>time</title><g id="time"><path id="time-2" data-name="time" d="M94.41,16.5h10.27c.48.1.95.21,1.43.3,5.27.91,10.65,1.37,15.77,2.8a84,84,0,0,1-20.59,164.88,80.73,80.73,0,0,1-44.68-11.81Q24,152.79,16.84,115.14c-.59-3.13-.89-6.31-1.32-9.47V95.39a9.77,9.77,0,0,0,.28-1.28A79.85,79.85,0,0,1,27.2,57.83C40.49,36,59.74,22.56,84.93,17.82,88.06,17.23,91.25,16.93,94.41,16.5ZM99.5,29.41a71.11,71.11,0,1,0,71.13,71.12A71.08,71.08,0,0,0,99.5,29.41ZM106,91.91V56c0-4.17-2.67-7.11-6.43-7.13s-6.49,2.87-6.5,7V99.93c0,4.46,2.63,7,7.14,7.06,5.74,0,11.49,0,17.23,0q13.5,0,27,0a6.45,6.45,0,1,0,0-12.89c-12.1,0-24.19,0-36.29,0H106Z"/></g></svg>