<svg xmlns="http://www.w3.org/2000/svg" viewBox="0 0 199.1 201"><title>wallet</title><g id="wallet"><path id="wallet-2" data-name="wallet" d="M141.48,40h18V59.8a61,61,0,0,1,6.31.71,22.44,22.44,0,0,1,17.79,20.58c.16,2.83.08,5.68.08,8.52q0,34.11,0,68.21c0,11.23-6.88,20.11-17.53,22.67a26.27,26.27,0,0,1-6.13.64q-60.45.06-120.88,0c-13.73,0-23.69-9.79-23.71-23.34q0-42.63,0-85.26,0-14.52,0-29c0-14,9.75-23.61,24-23.61,25.89,0,51.79.17,77.69-.08,12.83-.13,22.6,8.59,24.1,19.07C141.23,39.17,141.33,39.43,141.48,40Zm30.71,97h-2.44c-6.41,0-12.81.05-19.22,0-6.89-.07-11.65-4.82-11.69-11.56q0-5,0-10c0-6.67,5-11.47,11.78-11.49,6.41,0,12.81,0,19.22,0h2.4V84.09c0-8.42-4.59-13-13.11-13q-59.82,0-119.66,0a25.21,25.21,0,0,1-11.39-2.38,5.06,5.06,0,0,0-1.1-.27c0,.35-.08.55-.08.75q0,44.67,0,89.34c0,6.38,5,11.24,11.63,11.24q61,0,121.93,0c6.41,0,11.37-4.29,11.64-10.55C172.43,152,172.19,144.7,172.19,137Zm-135-77.4c.14-1.62.23-3.1.39-4.57.85-7.73,5.69-13.12,13.29-14.6a31.18,31.18,0,0,1,6-.43Q92,40,127.09,40h2.42a10.79,10.79,0,0,0-10.7-8.74q-40.4-.06-80.79,0A11.07,11.07,0,0,0,26.91,42.11c-.08,2.5.24,5-.14,7.5C26.1,53.89,32.77,60.06,37.2,59.61Zm110.63-8.16c-.84,0-1.51-.1-2.19-.1q-44.71,0-89.43,0a9.71,9.71,0,0,0-3.47.34A4.9,4.9,0,0,0,50,53.82a33.75,33.75,0,0,0-1.2,6h99Zm2.59,74.17h21.67V115.46H150.42Z"/></g></svg>